# xmcd
#
# Track frame offsets:
#	150
#	21075
#	35022
#	49039
#	67890
#	82760
#	102775
#	123187
#	134302
#	147012
#	165184
#	182680
#	199895
#
# Disc length: 2687 seconds
#
# Revision: 0
# Processed by: cddbd v1.5PL3 Copyright (c) Steve Scherf et al.
# Submitted via: audiograbber 1.83.01
#
DISCID=9e0a7d0d
DTITLE=Various Artist - Fleetwood Mac: Patron Saints Of Pop
DYEAR=1900
DGENRE=
TTITLE0=Faster Tiger - The Chain
TTITLE1=$50 - Dust
TTITLE2=Gourds - I Know I'm Not Wrong
TTITLE3=Home - Gypsy
TTITLE4=Jumbo - Tusk
TTITLE5=Reservoir - Walk A Thin Line
TTITLE6=Purple Ivy Shadows - Hypnotized
TTITLE7=The Lucky Strikes - Never Make Me Cry
TTITLE8=Semisweet - Go Your Own Way
TTITLE9=Spitoon - Gold Dust Woman
TTITLE10=Those Bastard Souls - That's All For Everyone - The Chain (Slight Retu
TTITLE10=rn)
TTITLE11=Varnaline - Albatross
TTITLE12=n/a - n/a
EXTD=
EXTT0=
EXTT1=
EXTT2=
EXTT3=
EXTT4=
EXTT5=
EXTT6=
EXTT7=
EXTT8=
EXTT9=
EXTT10=
EXTT11=
EXTT12=
PLAYORDER=
